<?xml version="1.0" standalone="no"?>
<!DOCTYPE svg PUBLIC "-//W3C//DTD SVG 20010904//EN"
 "http://www.w3.org/TR/2001/REC-SVG-20010904/DTD/svg10.dtd">
<svg version="1.0" xmlns="http://www.w3.org/2000/svg"
 width="1740.000000pt" height="1160.000000pt" viewBox="0 0 1740.000000 1160.000000"
 preserveAspectRatio="xMidYMid meet">

<g transform="translate(0.000000,1160.000000) scale(0.100000,-0.100000)"
fill="#000000" stroke="none">
<path d="M4070 8340 l0 -690 1033 0 c567 0 1049 -3 1069 -6 24 -4 55 -23 91
-55 l55 -49 130 0 129 0 18 45 c9 25 25 50 35 55 11 6 105 10 214 10 l196 0 0
690 0 690 -1485 0 -1485 0 0 -690z"/>
<path d="M9983 7990 c-23 -9 -23 -11 -23 -230 l0 -220 43 1 c23 0 36 3 29 6
-6 2 -9 9 -6 15 4 6 10 77 14 158 5 89 13 159 22 177 l13 28 1687 0 1687 0 5
29 c4 19 2 33 -6 38 -18 11 -3437 9 -3465 -2z"/>
<path d="M5830 7191 c-22 -6 -25 -13 -27 -56 -2 -39 0 -45 7 -28 5 12 19 24
32 27 133 26 271 27 3390 29 1774 1 3230 5 3234 10 4 4 4 10 0 15 -10 9 -6602
13 -6636 3z"/>
<path d="M13642 6464 c-1 -23 -5 -56 -8 -73 l-6 -31 -260 0 c-255 0 -259 0
-281 -22 -13 -14 -43 -82 -71 -165 -26 -78 -54 -147 -62 -154 -12 -10 -23 -6
-59 20 -25 18 -45 28 -45 22 0 -16 73 -80 91 -81 20 0 45 57 84 185 35 115 58
161 87 169 13 3 137 6 276 6 203 0 254 3 258 13 3 8 3 45 1 83 -1 38 -4 50 -5
28z"/>
<path d="M2745 5728 c-3 -7 -4 -350 -3 -763 l3 -750 32 -3 32 -3 3 721 3 722
24 19 c23 18 57 19 1262 19 l1239 0 0 25 0 25 -1295 0 c-1027 0 -1297 -3
-1300 -12z"/>
<path d="M12848 4428 l-3 -383 -130 -1 c-71 -1 -305 -5 -520 -8 -432 -8 -408
-4 -445 -76 -10 -19 -50 -134 -90 -255 -91 -280 -99 -301 -122 -331 -37 -47
-28 -53 -355 238 -122 109 -224 198 -227 198 -3 0 -6 -223 -6 -495 l0 -494
1523 -3 c1404 -3 1525 -4 1547 -20 14 -9 111 -93 215 -187 105 -94 201 -174
214 -178 35 -9 44 9 102 188 30 95 59 165 71 176 18 16 46 18 314 21 l294 3
-2 992 -3 992 -1187 3 -1188 2 -2 -382z"/>
<path d="M5958 4043 c111 -2 293 -2 405 0 111 1 20 2 -203 2 -223 0 -314 -1
-202 -2z"/>
<path d="M8620 4043 c97 -6 2062 -8 2020 -1 -25 3 -499 6 -1055 5 -555 0 -990
-2 -965 -4z"/>
<path d="M6708 4034 c-5 -4 -8 -17 -8 -29 0 -21 -4 -22 -182 -28 -99 -4 -230
-7 -289 -7 -103 0 -108 -1 -128 -26 -11 -14 -36 -75 -57 -137 -55 -167 -73
-205 -97 -209 l-22 -3 22 -13 c34 -19 45 0 101 175 28 87 58 167 66 178 13 18
28 20 179 23 l165 3 6 -88 c3 -48 6 -98 7 -110 1 -23 19 -33 19 -12 0 8 4 8
13 1 10 -8 24 -8 50 0 29 9 40 9 50 -1 9 -9 13 -160 17 -624 l5 -612 32 -3
c29 -3 32 0 37 30 3 18 8 188 11 378 10 549 24 679 80 716 12 8 55 21 96 29
62 12 120 13 349 5 222 -8 1441 -25 2415 -34 100 -1 186 -6 193 -10 7 -4 12
-19 13 -34 l1 -27 8 25 c4 14 8 55 9 93 1 52 4 67 16 67 9 0 15 -9 15 -23 0
-20 11 -26 78 -47 l77 -25 8 -84 c4 -46 6 -349 5 -675 l-3 -591 -1296 -5
c-1161 -4 -1299 -7 -1315 -21 -11 -8 -82 -69 -158 -135 -76 -65 -153 -131
-170 -146 -17 -14 -28 -29 -25 -33 8 -7 27 9 214 176 72 63 141 123 155 132
23 16 123 17 1317 17 l1293 0 0 845 0 845 -1679 0 -1680 0 -3 31 c-2 17 -6 27
-10 23z"/>
<path d="M2850 3963 c881 -7 2667 -7 2657 -1 -7 4 -685 7 -1507 5 -822 -1
-1340 -3 -1150 -4z"/>
<path d="M6588 2293 c67 -2 177 -2 245 0 67 1 12 3 -123 3 -135 0 -190 -2
-122 -3z"/>
</g>
</svg>
